<svg xmlns="http://www.w3.org/2000/svg" fill="none" viewBox="0 0 204 35">
  <g clip-path="url(#a)">
    <g filter="url(#b)">
      <ellipse
        cx="24.24"
        cy="17.862"
        fill="url(#c)"
        fill-opacity=".5"
        rx="15.947"
        ry="15.399"
      />
    </g>
    <path
      fill="url(#d)"
      d="m28.843 12.443-1.286.281c-.532-.862-1.2-1.492-1.912-1.815a2.915 2.915 0 0 0-.677-.216c.21-.03.422-.043.634-.041h.343c1.055.042 2.1.721 2.898 1.79Z"
    />
    <path
      fill="url(#e)"
      d="m30.83 21.03-1.44-1.152a.398.398 0 0 0-.3-.09l-.316-2.637-.086-.77-.043-.357v-.017a8.526 8.526 0 0 0-.171-.953 8.315 8.315 0 0 0-.112-.44c-.042-.149-.094-.323-.145-.48a6.827 6.827 0 0 0-.275-.672l1.363-.298c.157.282.297.572.42.87l.077.216a.555.555 0 0 0-.171.14.406.406 0 0 0-.094.15h-.009a.7.7 0 0 0-.043.398c.009.016.009.033.017.05.038.127.116.24.223.323l.454.364c.018.108.035.224.043.34l.103.863.043.372.094.755-.034-.017a.406.406 0 0 0-.464.27.385.385 0 0 0 .028.305c.025.047.06.088.102.122l.497.414.188 1.542.052.39Z"
    />
    <path
      fill="url(#f)"
      d="M31.628 23.385a.47.47 0 0 1-.069.107.684.684 0 0 1-.934.091l-.831-.646a8.305 8.305 0 0 1-.583-2.163l1.963 1.583c.123.353.275.697.454 1.028Z"
    />
    <path
      fill="url(#g)"
      d="M35.082 25.946s-1.2.116-1.603.075a3.32 3.32 0 0 1-.574-.1c-.831-.223-1.569-.72-2.16-1.425l.12.016c.22.024.442.001.65-.067.21-.07.4-.182.559-.33h.008c.549.762 1.217 1.326 1.937 1.616.336.14.698.212 1.063.215Z"
    />
    <path
      fill="url(#h)"
      d="m11.374 13.628-1.637-.017c-.428-1.02-1.097-1.973-2.006-2.578l-.042-.024a4.25 4.25 0 0 0-1.149-.54c.074-.054.151-.104.231-.149.063-.038.13-.071.198-.099l.068-.025.043-.016c.162-.043.33-.055.497-.034.187.017.372.056.549.116.51.168.981.43 1.388.771l.06.05c.251.22.483.458.694.713.442.51.798 1.083 1.055 1.7l.051.132Z"
    />
    <path
      fill="url(#i)"
      d="m11.434 18.602-.771.605-.378-3.183c-.051-.39-.06-.78-.145-1.16l-.078-.308h1.603l.026.1-.171.116-.06.05a.882.882 0 0 0-.306.612.85.85 0 0 0 .237.64c.156.17.335.32.531.447l.215 1.766c-.258.045-.5.153-.703.315Z"
    />
    <path
      fill="url(#j)"
      d="m12.411 20.6-.025.024-.035.025-.446.348-.11.091-.36.29-.207.158a.735.735 0 0 1-.214.108c-.026-.1-.043-.19-.068-.29l-.052-.315c-.008-.033-.008-.058-.017-.091a3.545 3.545 0 0 1-.034-.29l-.017-.1-.043-.398.077-.058 1.106-.87a.668.668 0 0 1 .265-.133l.129 1.086.051.415Z"
    />
    <path
      fill="url(#k)"
      d="M12.934 22.672a.654.654 0 0 1-.343-.216.658.658 0 0 1 0-.854c.09.364.204.721.343 1.07Z"
    />
    <path
      fill="url(#l)"
      d="m16.722 25.946-.9.067h-.017a4.859 4.859 0 0 1-.685.008c-1.757-.174-3.189-1.567-3.883-3.606.137-.037.268-.096.386-.174.05.324.21.624.455.85.245.227.561.368.899.402h.154l.189-.017c.643 1.144 1.534 1.973 2.502 2.305.289.103.593.159.9.165Z"
    />
    <path
      fill="#fff"
      d="m35.382 19.853-5.014-2.594-1.68-.879-2.211-1.144-.48-.248-.386-.2.386-.024.488-.034 1.877-.116 1.175-.074h-.01a.7.7 0 0 0-.042.398c.009.016.009.033.017.05.038.127.116.24.223.323l.454.364 3.463 2.786.506.398 1.071.862.163.132ZM47.245 18.685c-.16.319-.375.61-.635.862l-7.705.157-.06.406c0 .026-.002.05-.009.075l-1.791.033v-.025a.693.693 0 0 1 .017-.083l.043-.373-.677.017a1.502 1.502 0 0 0-.334-.365l-5.563-4.46 3.248-.207 4.089-.083c.051-.157.103-.315.163-.464l1.782-.041c-.06.165-.102.323-.145.472l6.325-.133a3.38 3.38 0 0 1 1.611 2.644c.011.543-.112 1.08-.36 1.568Z"
    />
    <path
      fill="#1F1C1D"
      d="m35.22 19.73-1.072-.863-3.823-1.981.043.373 5.014 2.594-.163-.124Zm0 0-1.072-.863-3.823-1.981.043.373 5.014 2.594-.163-.124Zm0 0-1.072-.863-3.823-1.981.043.373 5.014 2.594-.163-.124Zm0 0-1.072-.863-3.823-1.981.043.373 5.014 2.594-.163-.124Zm0 0-1.072-.863-3.823-1.981.043.373 5.014 2.594-.163-.124Zm0 0-1.072-.863-3.823-1.981-1.68-.879v.017l.043.356 1.68.879 5.014 2.594-.163-.124Zm0 0-1.072-.863-3.823-1.981-1.68-.879v.017l.043.356 1.68.879 5.014 2.594-.163-.124Zm0 0-1.072-.863-3.823-1.981-1.68-.879v.017l.043.356 1.68.879 5.014 2.594-.163-.124Zm.634.77a.871.871 0 0 0-.283-.497l-.189-.15-.163-.124-1.071-.862-3.823-1.981-1.68-.879-1.662-.854 1.49-.1 1.03-.057c-.01-.017-.01-.033-.018-.05a.7.7 0 0 1 .043-.398h.009a.404.404 0 0 1 .094-.15.552.552 0 0 1 .171-.14.614.614 0 0 1 .292-.1l2.777-.198-.026-.017-.145-.083-2.975.183-1.508.099-1.723.108-.489.033-2.391.15h-.069l.12.057 1.835.953.968.498 2.306 1.202 1.654.854.034.016.206.108 4.98 2.578h.206a.838.838 0 0 0 0-.199Zm11.34-.365c-.098.081-.201.156-.31.224l-.153.1-.052.033h.326l.137-.125c.403-.356.732-.784.969-1.26l.068-.124a3.704 3.704 0 0 1-.986 1.152Zm.522-5.371a4.385 4.385 0 0 0-1.345-1.17l-.12-.066h-.326l.66.415.069.05.23.149a3.814 3.814 0 0 1 1.312 1.417 4.725 4.725 0 0 0-.48-.795Zm-9.488-1.07-.094.2-.103.281c-.06.15-.112.307-.163.464l1.8-.033c.043-.15.086-.307.146-.472.06-.166.077-.216.12-.332l.068-.15-1.774.042Zm-1.123 6.043-.043.373a.713.713 0 0 0-.017.083v.025c-.008.067-.034.232-.077.464l1.783-.033c.034-.174.06-.29.068-.348.009-.058.009-.083.017-.116a.272.272 0 0 0 .01-.075l.06-.406-1.8.033Zm-1.886-.008-1.071-.862-3.823-1.981-1.68-.879v.017l.043.356 1.68.879 5.014 2.594-.163-.124Zm0 0-1.071-.862-3.823-1.981-1.68-.879v.017l.043.356 1.68.879 5.014 2.594-.163-.124Zm0 0-1.071-.862-3.823-1.981-1.68-.879v.017l.043.356 1.68.879 5.014 2.594-.163-.124Zm0 0-1.071-.862-3.823-1.981.043.373 5.014 2.594-.163-.124Zm0 0-1.071-.862-3.823-1.981.043.373 5.014 2.594-.163-.124Zm0 0-1.071-.862-3.823-1.981.043.373 5.014 2.594-.163-.124Zm0 0-1.071-.862-3.823-1.981.043.373 5.014 2.594-.163-.124Z"
    />
    <path
      fill="#fff"
      d="m13.868 14.1-.557.398-.086.067-1.2.854-.017.132a1.829 1.829 0 0 0 2.366.257l1.714-1.185.609-.423.051-.033-2.88-.066Zm-.934 5.215a.693.693 0 0 0-.531-.24.668.668 0 0 0-.437.15l-1.106.869-.077.058.043.398 1.525.091.034-.025.026-.025.429-.34.06-.05a.658.658 0 0 0 .034-.887Zm0 0a.693.693 0 0 0-.531-.24.668.668 0 0 0-.437.15l-1.106.869-.077.058-.429.34a.068.068 0 0 0-.034.033h-.009l.514.033 1.526.091.034-.025.026-.024.429-.34.06-.05a.658.658 0 0 0 .034-.895Zm13.08-5.422-1.209.265-.96.216-.231.05h-.069l-.411.091-.283.017-.351.016.128-.365a.558.558 0 0 1 .034-.082c0-.009.009-.017.009-.034h-.094l-1.698.1c-.058.13-.11.263-.154.398h-3.188l-.077.058-2.606 1.799a2.68 2.68 0 0 1-2.931.075 2.684 2.684 0 0 1-.532-.448.873.873 0 0 1-.237-.64.855.855 0 0 1 .306-.612l.06-.05.171-.116.129-.1h-1.757c-.789-.016-1.578-.024-2.366-.05a157.63 157.63 0 0 1-3.429-.115 3.368 3.368 0 0 0-1.49 1.028c-.302.363-.513.789-.618 1.243a2.908 2.908 0 0 0 .12 1.633c.203.495.54.927.977 1.252 2.126.174 4.286.332 6.411.472l.155-.149.84-.655.771-.605a1.57 1.57 0 0 1 2.143.207c.17.204.282.447.325.705l1.826-1.442a1.562 1.562 0 0 1 2.143.207c.162.194.271.425.317.671a1.576 1.576 0 0 1 1.783.133l-.069.522-.111.78-.017.132-.017.1a2.58 2.58 0 0 1-.06.356h.043l.522.017h.052l1.166.033.9.025a.641.641 0 0 0 .11-.29c0-.025.01-.05.01-.067s-.01-.075-.01-.108a.604.604 0 0 0-.153-.323.662.662 0 0 0-.463-.249h-.077l-.172.017.06-.415.052-.406c.214-.008.428.027.628.105.199.077.38.194.529.343l.086.091c.139.175.241.375.3.589.015.07.026.143.034.215v.017h.008l2.606-1.899.051-2.976c.009-.24.009-.472.018-.712v-.224c.008-.166.008-.332.008-.49 0-.157.009-.256.009-.38v.024Zm-3.677 6.383a.662.662 0 0 0-.463-.248h-.077l-.172.016-.068.53.934.025a.604.604 0 0 0-.154-.323Zm-9.403-.961a.693.693 0 0 0-.531-.24.668.668 0 0 0-.437.15l-1.106.869-.077.058.043.398 1.525.091.034-.025.026-.025.429-.34.06-.05a.658.658 0 0 0 .034-.887Zm4.294-.523a.68.68 0 0 0-.471-.248h-.069a.683.683 0 0 0-.437.149l-2.014 1.583-.514.415-.043.033 2.065.1.043-.034.523-.414.814-.647a.67.67 0 0 0 .254-.447.644.644 0 0 0-.15-.49Zm2.289.987a.692.692 0 0 0-.532-.24.682.682 0 0 0-.437.157l-.951.746-.532.423-.034.025 2.031.082h.069l.291-.232a.502.502 0 0 0 .155-.174l.025-.041a.652.652 0 0 0-.085-.746Z"
    />
    <path
      fill="#fff"
      d="m20.288 13.752.146.05h-3.026a.43.43 0 0 0-.24.075l-.42.29-.051.033-.609.423-1.714 1.185a1.829 1.829 0 0 1-2.366-.257l.017-.133 1.2-.853.086-.067.557-.397.077-.059h.009l.557-.397.077-.059 1.457-1.044a.465.465 0 0 1 .275-.083.238.238 0 0 1 .111.017l2.263.746.951.323h.009l.634.207ZM22.662 14.117a.565.565 0 0 0-.034.083h-1.749c.069-.167.146-.33.232-.49a.381.381 0 0 1 .043-.082l.214.066 1.209.406.085.017ZM35.854 20.707a.823.823 0 0 1-.728.714.86.86 0 0 1-.618-.167l-3.84-3.125-.206-.108-.034-.016a.407.407 0 0 0-.464.27.385.385 0 0 0 .028.305c.025.046.06.088.102.121l.497.415 2.76 2.254a.632.632 0 0 1 .05.862.687.687 0 0 1-.88.14l-1.69-1.341-1.44-1.153a.397.397 0 0 0-.3-.09.443.443 0 0 0-.283.14.397.397 0 0 0 .052.564l.35.282 1.964 1.583.291.232a.62.62 0 0 1 .163.796.47.47 0 0 1-.069.108.685.685 0 0 1-.934.091l-.831-.647-2.649-2.064a.424.424 0 0 0-.583.058.392.392 0 0 0 .06.564l1.406 1.094a.633.633 0 0 1 .068.884.686.686 0 0 1-.908.12l-3.368-2.637-.103-.075-.232-.174-.162-.132h-.01v-.017a1.872 1.872 0 0 0-.033-.215 1.634 1.634 0 0 0-.3-.589l-.086-.091-.043-5.082v-.041l.283-.017.411-.09h.069l.231-.05.96-.216 1.209-.265.488-.108 1.44-.324 1.363-.298 1.157-.257c.29-.065.595-.018.849.133l1.388.812.146.083.026.017-2.777.198a.613.613 0 0 0-.292.1.554.554 0 0 0-.171.14.406.406 0 0 0-.094.15h-.009a.7.7 0 0 0-.043.398c.009.017.009.033.017.05.038.127.116.24.223.323l.454.365 3.463 2.777.506.398 1.071.862.163.124.189.15a.87.87 0 0 1 .283.497c.009.071.009.144 0 .215Z"
    />
    <path
      fill="#1F1C1D"
      d="M23.314 20.566v.017-.017Zm7.31-2.478a.323.323 0 0 0-.162-.075h-.034l.034.017.206.107-.043-.05Zm-7.096-3.656h.017l.069-.017-.086.017Zm-.677.116-.352.017.129-.365a.565.565 0 0 1 .034-.083c0-.008.009-.017.009-.033 0-.017.094-.224.146-.332l-.37-.124-1.096-.365a4.814 4.814 0 0 0-.197.357.381.381 0 0 0-.043.083 5.11 5.11 0 0 0-.232.489c-.059.13-.11.262-.154.398h2.16l.249-.05-.283.008Z"
    />
    <path
      fill="#fff"
      d="M22.5 20.707c0 .017-.009.042-.009.066a.642.642 0 0 1-.111.29l-.035.05a.577.577 0 0 1-.103.1l-.351.282-.043.025-.437.348-.206.166a7.22 7.22 0 0 1-.343.779l-.6.48a1.14 1.14 0 0 1-1.508-.09c.077-.125.154-.25.223-.374a.655.655 0 0 1-.009-.713.563.563 0 0 1 .154-.165l.223-.183.18-.14.052-.183c.043-.133.077-.274.111-.415 0-.016.009-.033.009-.05l.197-.157.266-.207.094-.075.24-.19.608-.481c.167-.131.37-.212.583-.232l-.06.414.172-.016h.077a.686.686 0 0 1 .463.248c.083.091.137.204.154.324 0 .025.009.058.009.1Z"
    />
    <path
      fill="#1F1C1D"
      d="m20.254 21.014-.06.083.103-.083h-.043Zm1.371-.97.06-.414-.06.414Zm-1.157.497c-.045.164-.114.32-.206.465h-.008l-.06.083.103-.083h.017l.574-.456-.42-.009Zm1.157-.497.06-.414-.06.414Zm-1.157.497c-.045.164-.114.32-.206.465h-.008l-.06.083.103-.083h.017l.574-.456-.42-.009Zm1.157-.497.06-.414-.06.414Zm-1.157.497c-.045.164-.114.32-.206.465h-.008l-.06.083.103-.083h.017l.574-.456-.42-.009Zm-1.397.415h-.009l-.462.365a.439.439 0 0 0-.095.083.935.935 0 0 0-.154.165l.206-.165.103-.083.462-.365h.01l.29-.232a.504.504 0 0 0 .155-.174l-.506.406Zm.926 2.03a.71.71 0 0 1-.437.15.731.731 0 0 1-.54-.24l-.043-.067a8.526 8.526 0 0 1-.223.373 3.347 3.347 0 0 1-.24.332c.283.259.656.404 1.046.406.248.001.493-.059.711-.174.225-.3.423-.62.591-.953a7.21 7.21 0 0 0 .343-.78l-1.208.954Zm.84-3.431-.377.299-.369.298-.3.232-.017.133-.017.1c-.012.12-.032.238-.06.355 0 .017-.009.034-.009.05-.034.141-.068.282-.111.415l-.052.182.215-.174.085-.066.369-.29.103-.083h.017l.574-.456.472-.373a.67.67 0 0 1 .265-.133l.06-.414.052-.407a1.592 1.592 0 0 0-.9.332Zm-.575 1.45h-.008l-.06.084.103-.083h-.035Zm.206-.463c-.045.163-.114.32-.206.464h-.008l-.06.083.103-.083h.017l.574-.456-.42-.009Zm1.157-.498.06-.414-.06.414Zm-1.157.497c-.045.164-.114.32-.206.465h-.008l-.06.083.103-.083h.017l.574-.456-.42-.009Zm1.157-.497.06-.414-.06.414Z"
    />
    <path
      fill="#fff"
      d="M19.603 20.508a.653.653 0 0 0-.031-.65.685.685 0 0 0-.25-.233.682.682 0 0 0-.773.071l-.952.746-.532.423-.034.025-.437.348-.129.1-.35.281-1.132.895a.668.668 0 0 0-.254.448.644.644 0 0 0 .15.49.71.71 0 0 0 .74.223.684.684 0 0 0 .238-.124l2.323-1.832.171-.133.206-.166.103-.083.463-.364h.008l.292-.233a.503.503 0 0 0 .154-.174l.026-.058ZM20.09 20.202c0 .11-.017.218-.05.323a.633.633 0 0 1-.043.116c-.009.008-.009.025-.018.033l-.017.025-.034.05a.131.131 0 0 1-.034.058.989.989 0 0 1-.155.174l-.051.041c0-.016.009-.033.009-.05.028-.117.048-.236.06-.356l.017-.1.017-.132.111-.78c.112.164.177.352.189.548v.05ZM17.125 19.73l-.814.646-.523.414-.043.033-.437.34-.12.108-.351.273-1.277 1.004a.679.679 0 0 1-.626.124.654.654 0 0 1-.343-.216.658.658 0 0 1 .094-.945l.086-.066.351-.282.12-.1.438-.34.042-.032.515-.415 2.014-1.583a.683.683 0 0 1 .437-.15h.069a.707.707 0 0 1 .37.152.651.651 0 0 1-.001 1.034ZM12.9 20.21l-.06.05-.429.34-.025.024-.035.025-.445.348-.112.092-.36.29-.205.157a.74.74 0 0 1-.215.108.734.734 0 0 1-.737-.199.707.707 0 0 1-.086-.133.55.55 0 0 1-.077-.323v-.083a.72.72 0 0 1 .197-.381h.009a.068.068 0 0 1 .034-.033l.429-.34.077-.058 1.106-.87a.668.668 0 0 1 .437-.15c.135.001.268.04.38.113a.677.677 0 0 1 .255.297.65.65 0 0 1-.138.726ZM28.285 8.903c0-.087.035-.17.098-.232a.349.349 0 0 1 .561.103.324.324 0 0 1 0 .256.316.316 0 0 1-.192.172.336.336 0 0 1-.133.016.335.335 0 0 1-.235-.09.314.314 0 0 1-.099-.225Z"
    />
    <path
      fill="#DBBB6B"
      d="M19.902 10.743c0-.086.035-.17.098-.231a.348.348 0 0 1 .37-.078.342.342 0 0 1 .191.18.322.322 0 0 1 0 .256.313.313 0 0 1-.192.172.335.335 0 0 1-.132.016.334.334 0 0 1-.236-.089.315.315 0 0 1-.099-.226Z"
    />
    <path
      fill="#fff"
      d="M18.402 7.104a.44.44 0 0 1 .136-.316.47.47 0 0 1 .654 0 .418.418 0 0 1-.007.625.45.45 0 0 1-.328.114.46.46 0 0 1-.318-.12.432.432 0 0 1-.137-.303Z"
    />
    <path
      fill="#DBBB6B"
      d="M22.834 24.09a.434.434 0 0 1 .11-.356.463.463 0 0 1 .348-.153.477.477 0 0 1 .35.153.442.442 0 0 1 .109.355.444.444 0 0 1-.154.277.472.472 0 0 1-.609 0 .444.444 0 0 1-.154-.277ZM34.08 8.878c.034 0 .042.05.042.05s.009.033.009.05c.075.265.22.506.422.7.201.193.452.332.726.402l.052.017s.051.008.051.041-.051.042-.051.042l-.052.016c-.274.07-.525.21-.726.403a1.555 1.555 0 0 0-.422.7c0 .016-.009.033-.009.05 0 .016-.008.05-.042.05-.035 0-.043-.05-.043-.05s-.009-.034-.017-.05a1.548 1.548 0 0 0-.421-.701 1.625 1.625 0 0 0-.728-.402l-.043-.016s-.06-.009-.06-.042.06-.041.06-.041l.043-.017c.275-.07.526-.208.728-.402.201-.193.347-.435.42-.7.009-.017.009-.034.018-.05.008-.017.008-.05.043-.05Z"
    />
    <path
      fill="#fff"
      d="M24.968 4.103c.043 0 .06.067.06.067.002.02.008.04.017.058a2 2 0 0 0 .536.902c.257.25.578.43.93.523l.069.017s.068.008.068.05c0 .041-.068.058-.068.058l-.069.016c-.351.092-.672.27-.929.52a1.992 1.992 0 0 0-.537.898.2.2 0 0 0-.017.058s-.017.075-.06.075-.051-.075-.051-.075a2 2 0 0 0-.558-.957 2.1 2.1 0 0 0-.934-.519l-.06-.016s-.068-.017-.068-.058c0-.042.068-.05.068-.05l.06-.017c.353-.092.675-.273.933-.523.259-.25.446-.561.542-.902.008-.017.008-.042.017-.058.008-.017.008-.067.051-.067Z"
    />
    <path
      fill="#DBBB6B"
      d="M23.442 27.438c.043 0 .06.075.06.075a.2.2 0 0 0 .018.058c.094.34.279.65.536.898.257.25.578.428.93.52l.068.016s.068.017.068.058c0 .042-.068.05-.068.05l-.069.016a2.1 2.1 0 0 0-.93.524 2 2 0 0 0-.535.902.154.154 0 0 0-.018.058s-.017.067-.06.067-.051-.067-.051-.067-.009-.041-.017-.058a2.016 2.016 0 0 0-.541-.902c-.259-.25-.58-.43-.933-.524l-.06-.016s-.069-.008-.069-.05c0-.041.069-.058.069-.058l.06-.017a2.1 2.1 0 0 0 .933-.518 2 2 0 0 0 .558-.957s.009-.075.051-.075ZM14.725 8.571c.035 0 .043.05.043.05a1.522 1.522 0 0 0 .42.73 1.6 1.6 0 0 0 .712.397h.043s.06.009.06.042-.06.041-.06.041l-.043.017a1.6 1.6 0 0 0-.71.394c-.198.189-.34.425-.413.684 0 .016-.009.033-.009.05 0 .016-.008.05-.043.05-.034 0-.043-.05-.043-.05s-.008-.034-.008-.05a1.523 1.523 0 0 0-.413-.684 1.6 1.6 0 0 0-.71-.394l-.043-.017s-.06-.008-.06-.041.06-.042.06-.042h.043a1.6 1.6 0 0 0 .712-.397 1.522 1.522 0 0 0 .42-.73s.008-.05.042-.05Z"
    />
    <path
      fill="#fff"
      d="M27.35 25.822c.026 0 .026.041.026.041s.01.017.01.034c.054.188.159.36.303.498s.323.238.519.289l.034.017s.043 0 .043.024c0 .025-.043.034-.043.034h-.034a1.185 1.185 0 0 0-.52.292c-.145.14-.25.313-.303.503a.066.066 0 0 1-.009.034s0 .033-.025.033c-.026 0-.034-.033-.034-.033s-.01-.025-.01-.034a1.094 1.094 0 0 0-.298-.507 1.15 1.15 0 0 0-.524-.288h-.034s-.035-.009-.035-.034c0-.024.035-.024.035-.024l.034-.017c.197-.049.377-.148.522-.286.144-.139.248-.311.3-.502 0-.016.01-.024.01-.033 0-.008.008-.041.034-.041Z"
    />
    <path
      fill="#DBBB6B"
      d="M26.323 10.71c-.233.041-.46.108-.678.199-1.122.431-2.108 1.368-2.76 2.694l-.068.15a3.948 3.948 0 0 0-.146.33c-.043.117-.008.026-.008.034a.554.554 0 0 0-.035.083l-.128.365c0 .016-.009.025-.009.033a7.818 7.818 0 0 0-.308 1.4l-.446 3.225-.052.407-.06.414-.068.53v.042a6.117 6.117 0 0 1-.18.895 8.761 8.761 0 0 1-.163.523 7.21 7.21 0 0 1-.343.779 6.407 6.407 0 0 1-.591.953c-.926 1.244-2.237 2.048-3.575 2.197-.265.025-.59.041-.874.05h-.017c-.377.016-.686.008-.686.008.244-.05.48-.127.703-.232a5.698 5.698 0 0 0 1.192-.697 7.632 7.632 0 0 0 1.5-1.558c.085-.108.163-.224.24-.332.077-.107.154-.248.222-.373.21-.36.384-.737.523-1.127l.026-.075.052-.182c.042-.133.077-.273.11-.415 0-.016.01-.033.01-.05.028-.117.048-.236.06-.356l.017-.1.017-.132.111-.779.069-.522.42-3.084c.057-.45.16-.895.308-1.326l.026-.075a3.81 3.81 0 0 1 .154-.398c.069-.167.146-.33.232-.489a.381.381 0 0 1 .043-.083c.06-.124.128-.24.197-.356.934-1.525 2.391-2.545 3.891-2.611h.36c.238-.001.476.013.712.041Z"
    />
    <path
      fill="#DBBB6B"
      d="M28.585 1.086a6.84 6.84 0 0 0-3.707-1.087 6.84 6.84 0 0 0-3.707 1.087L9.042 8.86c.377.15.789.34 1.209.556l11.554-7.403c.68-.44 1.452-.73 2.261-.846a5.69 5.69 0 0 1 3.884.846L39.736 9.5a5.39 5.39 0 0 1 1.011-.68L28.585 1.086Zm18.934 12.136-3.172-2.031-.797-.514h-.009l-.505-.332-.052-.025-.325.125c-.291.13-.57.286-.832.464l.232.15.788.505 2.589 1.658.488.315.66.414.069.05.231.15a3.814 3.814 0 0 1 1.312 1.417c.396.748.514 1.606.334 2.429-.07.34-.188.67-.352.978a3.703 3.703 0 0 1-.985 1.16c-.098.081-.2.156-.309.224l-.154.1-.051.033-1.072.688L27.95 32.495a5.699 5.699 0 0 1-3.072.895 5.699 5.699 0 0 1-3.073-.895L4.457 21.37l-1.226-.787-.172-.108h-.008l-.18-.116a3.675 3.675 0 0 1-1.08-1.053 3.628 3.628 0 0 1-.644-2.035 3.625 3.625 0 0 1 .618-2.043h.009A3.71 3.71 0 0 1 2.87 14.15l1.148-.738.052-.025.986-.638 2.57-1.65.104-.066h1.783c-.575-.505-1.518-1.07-1.955-1.235l-5.322 3.424c-.502.323-.94.73-1.295 1.202l-.111.165a4.658 4.658 0 0 0-.744 1.74 4.589 4.589 0 0 0 .015 1.883 4.717 4.717 0 0 0 1.303 2.396c.25.252.529.474.832.663l.197.124 18.736 12.02a6.884 6.884 0 0 0 3.707 1.078 6.884 6.884 0 0 0 3.708-1.078l18.9-12.12.034-.024c.322-.206.619-.448.882-.721.198-.194.373-.408.523-.639.12-.173.229-.353.326-.538l.154-.34c.423-1.031.466-2.171.123-3.23a4.853 4.853 0 0 0-2.008-2.581Z"
    />
    <path
      fill="#1F1C1D"
      d="m43.028 10.345-.249.067-.12.033.326-.125.043.025Z"
    />
    <path
      fill="#DBBB6B"
      d="M43.559 10.677h-.017l-.155-.025c-.505-.058-.951.141-1.328.398a5.19 5.19 0 0 0-.771.663 6.254 6.254 0 0 0-.943 1.235 7.24 7.24 0 0 0-.317.63l-.026.067-.069.149c-.043.116-.086.224-.12.331a20.09 20.09 0 0 0-.146.473 6.594 6.594 0 0 0-.188.887l-.557 4.037-.017.166-.06.406c0 .025-.003.05-.009.074-.008.034-.008.075-.017.117-.009.04-.034.174-.069.348-.24 1.16-1.157 4.617-3.66 5.33-.42.116-1.148.24-2.185-.058a3.7 3.7 0 0 0 1.114-.19c.164-.054.322-.124.471-.208 1.166-.63 1.603-1.84 1.98-2.885.214-.64.38-1.294.498-1.956.042-.232.068-.398.077-.464v-.025a.713.713 0 0 1 .017-.083l.043-.373v-.025l.034-.282.54-3.938c.038-.288.099-.573.18-.853.051-.158.103-.315.163-.464l.103-.282.094-.2a.164.164 0 0 1 .034-.066 4.58 4.58 0 0 1 .3-.572c.635-1.085 1.526-2.039 2.477-2.66.264-.174.542-.327.832-.456.108-.05.22-.09.334-.125l.043.025 1.32.854Z"
    />
  </g>
  <path
    fill="#fff"
    d="M61.96 21.893c-.714 0-1.357-.141-1.928-.424a3.186 3.186 0 0 1-1.35-1.311c-.328-.583-.491-1.311-.491-2.186V13.44h1.916v4.907c0 .541.084.99.252 1.349.168.35.404.616.706.799a2.15 2.15 0 0 0 1.072.262c.227 0 .429-.025.605-.075.177-.058.34-.133.492-.225.21-.191.37-.487.48-.886.108-.4.163-.887.163-1.461v-4.67h1.362v4.582c0 .708-.084 1.312-.252 1.811-.16.5-.387.9-.681 1.199-.286.3-.63.516-1.034.65a3.866 3.866 0 0 1-1.311.211Zm-3-7.567-1.74-.25.012-.636h1.766l-.038.886Zm.97.1-.012-.986h1.185l.076.4a7.78 7.78 0 0 1-.593.312c-.21.091-.428.183-.655.274Zm4.615-.1-1.74-.25.013-.636h1.765l-.038.886Zm.517.1-.012-.986h1.185l.076.4a7.801 7.801 0 0 1-.593.312c-.21.091-.429.183-.656.274ZM73.882 21.806l-4.816-7.317.025-1.05h1.538l4.615 7.143-.126.837-1.236.387Zm-6.178-.15-.075-.4c.185-.116.382-.22.592-.312.219-.1.437-.191.656-.274l.013.986h-1.186Zm1.703 0 .037-.886 1.74.25-.012.636h-1.766Zm-.707 0V13.44h1.93l-.883 1.136.328 2.722v4.358H68.7Zm.757-7.33-1.64-.25.013-.636h1.665l-.038.886Zm4.425 7.48.833-.724-.379-3.184V13.44h1.375l-.05 8.216-1.779.15Zm.959-7.48-1.74-.25.012-.636h1.766l-.038.886Zm.643.1-.013-.986h1.185l.076.4a7.798 7.798 0 0 1-.593.312c-.21.091-.428.183-.655.274ZM80.79 17.735v-.774h.934c.437 0 .781-.062 1.033-.187.261-.134.45-.3.568-.5.126-.2.19-.408.19-.624 0-.291-.093-.57-.278-.837a1.17 1.17 0 0 0-.719-.5l-1.488.2-2.686-1.073c.286-.017.602-.03.946-.038a42.507 42.507 0 0 1 2.08-.05c.337-.008.64-.012.908-.012.732 0 1.333.104 1.803.312.471.2.816.462 1.034.787.227.324.34.662.34 1.011 0 .283-.07.566-.214.85a1.82 1.82 0 0 1-.643.723c-.285.192-.66.3-1.122.325l-1.651.287-1.034.1Zm-2.559 3.921-.076-.4c.185-.116.383-.22.593-.312.218-.1.437-.191.656-.274l.012.986h-1.185Zm.996 0v-8.204h1.917v8.204h-1.917Zm1.614 0 .038-1.086 1.273.125c.387.033.702-.013.946-.138.252-.125.437-.295.555-.512.117-.225.176-.453.176-.687a1.575 1.575 0 0 0-.756-1.336c-.244-.158-.542-.237-.895-.237h-1.3l.215-.325 1.664-.2c.681-.058 1.249.009 1.703.2.462.192.81.458 1.046.8.236.341.353.716.353 1.123 0 .383-.117.75-.353 1.1-.235.34-.61.624-1.122.848-.504.217-1.172.325-2.005.325h-1.538Zm-1.084-7.405-1.425-.174.013-.637h1.412v.811ZM90.196 18.484l-.063-1.173a4.107 4.107 0 0 0 1.274.212c.32 0 .588-.042.807-.125.218-.091.39-.212.517-.362a1.58 1.58 0 0 0 .277-.524 2.214 2.214 0 0 0-.1-1.51 1.43 1.43 0 0 0-.568-.688l-1.904.2-2.686-1.074 4.022-.1c.706 0 1.303.12 1.79.362.488.233.862.541 1.123.924.26.383.39.8.39 1.249 0 .44-.125.861-.377 1.26-.253.392-.61.713-1.072.962-.463.25-1.009.375-1.64.375l-1.79.012Zm-2.534 3.172-.076-.4c.185-.116.383-.22.593-.312.218-.1.437-.191.656-.274l.012.986h-1.185Zm2.282 0 .038-.886 1.74.25-.013.636h-1.765Zm-1.286 0V13.44h1.916v8.216h-1.916Zm5.434 0 .038-.861 1.74.224-.013.637h-1.765Zm-4.93-7.405-1.424-.174.012-.637h1.412v.811Zm4.174 7.405-1.98-3.671 1.816-.112 2.358 3.783h-2.194ZM97.278 21.656l-.076-.4c.185-.116.382-.22.592-.312.219-.1.438-.191.656-.274l.013.986h-1.185Zm6.594 0-1.602-.3.694-2.26 1.059.075c.009.233.004.504-.013.812-.008.3-.025.6-.05.899-.025.291-.055.55-.088.774Zm-5.094-7.405-1.425-.174.013-.637h1.412v.811Zm3.896 1.561-.353-2.035 1.614-.337c.008.158.008.374 0 .65-.009.265-.03.553-.063.86-.034.3-.08.588-.139.862h-1.059Zm-4.4 5.844V13.44h1.916v8.216h-1.916Zm4.64-3.509-3.026-.125v-.899l3.026-.237v1.261Zm.832-3.483-3.972-.275-.946-.95h5.107l-.189 1.225Zm-4.88 6.992.946-1.011 3.946-.263.114 1.274h-5.006ZM105.847 21.656l3.303-8.016 1.047.274-2.976 7.742h-1.374Zm6.115 0-3.114-8.066 1.652-.45 3.492 8.516h-2.03Zm-4.236-2.272v-.95h3.934v.95h-3.934Zm-2.484 2.272-.076-.4a4.45 4.45 0 0 1 .593-.312c.218-.1.437-.191.655-.274l.013.986h-1.185Zm1.677 0 .038-.886 1.74.25-.013.636h-1.765Zm3.681 0-.075-.4c.185-.116.382-.22.592-.312.211-.1.429-.191.656-.274l.404.986H110.6Zm2.207 0 .038-.886 1.74.25-.013.636h-1.765ZM115.511 21.656l-.075-.4c.185-.116.382-.22.592-.312.219-.1.437-.191.656-.274l.012.986h-1.185Zm2.207 0 .038-.886 1.74.25-.013.636h-1.765Zm4.917 0v-.874l1.425.225-.013.65h-1.412Zm-4.388-7.23-.012-.986h1.185l.076.4a7.847 7.847 0 0 1-.593.312c-.21.091-.429.183-.656.274Zm3.871-.1-1.74-.25.013-.636h1.765l-.038.886Zm.088.1-.012-.986h1.336l.076.4a4.592 4.592 0 0 1-.668.312c-.261.1-.505.191-.732.274Zm-5.699 7.23V13.44h1.917v8.216h-1.917Zm1.488-2.572-.214-1.236 4.148-4.408h1.009l-.051.512-4.892 5.132Zm3.531 2.572-2.711-3.758 1.311-1.212 3.745 4.97h-2.345Zm-4.25-7.33-1.74-.25.013-.636h1.765l-.038.886ZM125.226 21.656l3.303-8.016 1.047.274-2.976 7.742h-1.374Zm6.115 0-3.114-8.066 1.651-.45 3.493 8.516h-2.03Zm-4.236-2.272v-.95h3.933v.95h-3.933Zm-2.484 2.272-.076-.4a4.39 4.39 0 0 1 .593-.312c.218-.1.437-.191.655-.274l.013.986h-1.185Zm1.677 0 .037-.886 1.74.25-.012.636h-1.765Zm3.681 0-.075-.4c.185-.116.382-.22.592-.312.21-.1.429-.191.656-.274l.403.986h-1.576Zm2.207 0 .038-.886 1.74.25-.013.636h-1.765ZM137.45 17.735v-.774h.933c.437 0 .781-.062 1.034-.187.26-.134.449-.3.567-.5.126-.2.189-.408.189-.624 0-.291-.092-.57-.277-.837a1.171 1.171 0 0 0-.719-.5l-1.488.2-2.685-1.073c.285-.017.601-.03.945-.038a42.638 42.638 0 0 1 2.081-.05c.336-.008.639-.012.908-.012.731 0 1.332.104 1.803.312.47.2.815.462 1.033.787.227.324.341.662.341 1.011 0 .283-.072.566-.214.85a1.82 1.82 0 0 1-.644.723c-.285.192-.659.3-1.122.325l-1.651.287-1.034.1Zm-2.56 3.921-.076-.4a4.45 4.45 0 0 1 .593-.312c.219-.1.437-.191.656-.274l.012.986h-1.185Zm.996 0v-8.204h1.917v8.204h-1.917Zm1.614 0 .038-1.086 1.273.125c.387.033.702-.013.946-.138a1.23 1.23 0 0 0 .555-.512c.118-.225.176-.453.176-.687a1.576 1.576 0 0 0-.756-1.336c-.244-.158-.542-.237-.895-.237h-1.299l.214-.325 1.665-.2c.68-.058 1.248.009 1.702.2.462.192.811.458 1.046.8.236.341.353.716.353 1.123 0 .383-.117.75-.353 1.1-.235.34-.609.624-1.122.848-.504.217-1.172.325-2.005.325H137.5Zm-1.084-7.405-1.425-.174.013-.637h1.412v.811ZM145.317 21.656V13.44h1.917v8.216h-1.917Zm-.996 0-.076-.4a4.45 4.45 0 0 1 .593-.312c.219-.1.437-.191.656-.274l.012.986h-1.185Zm1.639 0 .946-1.024 4.047-.312.214 1.336h-5.207Zm5.22 0-1.702-.3.769-2.672 1.097.1a20.645 20.645 0 0 1-.05 1.973 7.737 7.737 0 0 1-.114.9Zm-5.094-7.33-1.74-.25.013-.636h1.765l-.038.886Zm.971.1-.013-.986h1.186l.075.4a7.821 7.821 0 0 1-.592.312c-.21.091-.429.183-.656.274ZM152.841 21.656l-.076-.4a4.39 4.39 0 0 1 .593-.312c.218-.1.437-.191.655-.274l.013.986h-1.185Zm6.594 0-1.601-.3.693-2.26 1.059.075c.009.233.005.504-.012.812-.009.3-.026.6-.051.899-.025.291-.054.55-.088.774Zm-5.094-7.405-1.425-.174.013-.637h1.412v.811Zm3.896 1.561-.353-2.035 1.614-.337a10.854 10.854 0 0 1-.063 1.51c-.034.3-.08.588-.139.862h-1.059Zm-4.4 5.844V13.44h1.916v8.216h-1.916Zm4.64-3.509-3.026-.125v-.899l3.026-.237v1.261Zm.832-3.483-3.972-.275-.945-.95h5.106l-.189 1.225Zm-4.88 6.992.946-1.011 3.947-.263.113 1.274h-5.006Z"
  />
  <path
    fill="#DBBB6B"
    d="M168.282 21.561h1.248l3.363-8.07h-1.537l-2.427 6.159-2.439-6.158h-1.572l3.364 8.07ZM178.338 21.642c2.485 0 4.241-1.89 4.241-4.144 0-2.278-1.733-4.144-4.218-4.144s-4.242 1.89-4.242 4.144c0 2.278 1.734 4.144 4.219 4.144Zm.023-1.294c-1.607 0-2.751-1.293-2.751-2.85 0-1.58 1.121-2.85 2.728-2.85 1.606 0 2.75 1.293 2.75 2.85 0 1.58-1.121 2.85-2.727 2.85ZM186.746 21.561h1.225l1.988-5.757 1.988 5.757h1.225l2.821-8.07h-1.491l-1.931 5.942-1.988-5.964h-1.202l-1.988 5.964-1.93-5.941h-1.537l2.82 8.07ZM200.751 21.619c1.699 0 2.889-.893 2.889-2.393 0-1.35-.89-1.957-2.6-2.369-1.549-.366-1.919-.64-1.919-1.259 0-.55.485-.973 1.318-.973.739 0 1.468.286 2.196.824l.762-1.064c-.82-.653-1.756-1.008-2.935-1.008-1.607 0-2.763.95-2.763 2.324 0 1.5.971 2.003 2.693 2.404 1.503.354 1.827.664 1.827 1.236 0 .63-.555 1.03-1.434 1.03-1.005 0-1.78-.378-2.554-1.042l-.855 1.008a5.011 5.011 0 0 0 3.375 1.282Z"
  />
  <defs>
    <linearGradient
      id="d"
      x1="27.67"
      x2="26.454"
      y1="13.019"
      y2="10.551"
      gradientUnits="userSpaceOnUse"
    >
      <stop stop-color="#DBBB6B" />
      <stop offset=".52" stop-color="#DBBB6B" />
      <stop offset="1" stop-color="#6B592A" />
    </linearGradient>
    <linearGradient
      id="e"
      x1="31.318"
      x2="27.617"
      y1="20.494"
      y2="12.981"
      gradientUnits="userSpaceOnUse"
    >
      <stop stop-color="#4F411A" />
      <stop offset=".14" stop-color="#DBBB6B" />
      <stop offset=".78" stop-color="#DBBB6B" />
      <stop offset="1" stop-color="#6B592A" />
    </linearGradient>
    <linearGradient
      id="f"
      x1="31.031"
      x2="29.41"
      y1="23.686"
      y2="20.396"
      gradientUnits="userSpaceOnUse"
    >
      <stop stop-color="#4F411A" />
      <stop offset=".14" stop-color="#DBBB6B" />
      <stop offset=".78" stop-color="#DBBB6B" />
      <stop offset="1" stop-color="#6B592A" />
    </linearGradient>
    <linearGradient
      id="g"
      x1="33.388"
      x2="32.184"
      y1="26.122"
      y2="23.678"
      gradientUnits="userSpaceOnUse"
    >
      <stop stop-color="#4F411A" />
      <stop offset=".53" stop-color="#DBBB6B" />
      <stop offset="1" stop-color="#DBBB6B" />
    </linearGradient>
    <linearGradient
      id="h"
      x1="10.058"
      x2="7.761"
      y1="14.091"
      y2="9.429"
      gradientUnits="userSpaceOnUse"
    >
      <stop stop-color="#4F411A" />
      <stop offset=".37" stop-color="#DBBB6B" />
      <stop offset=".91" stop-color="#DBBB6B" />
    </linearGradient>
    <linearGradient
      id="i"
      x1="11.966"
      x2="9.924"
      y1="18.409"
      y2="14.264"
      gradientUnits="userSpaceOnUse"
    >
      <stop stop-color="#4F411A" />
      <stop offset=".14" stop-color="#DBBB6B" />
      <stop offset=".91" stop-color="#DBBB6B" />
    </linearGradient>
    <linearGradient
      id="j"
      x1="12.008"
      x2="11.193"
      y1="21.099"
      y2="19.443"
      gradientUnits="userSpaceOnUse"
    >
      <stop stop-color="#4F411A" />
      <stop offset=".14" stop-color="#DBBB6B" />
      <stop offset=".91" stop-color="#DBBB6B" />
    </linearGradient>
    <linearGradient
      id="k"
      x1="12.907"
      x2="12.395"
      y1="22.648"
      y2="21.607"
      gradientUnits="userSpaceOnUse"
    >
      <stop stop-color="#4F411A" />
      <stop offset=".14" stop-color="#DBBB6B" />
      <stop offset=".91" stop-color="#DBBB6B" />
    </linearGradient>
    <linearGradient
      id="l"
      x1="15.076"
      x2="12.511"
      y1="26.354"
      y2="21.147"
      gradientUnits="userSpaceOnUse"
    >
      <stop stop-color="#4F411A" />
      <stop offset=".37" stop-color="#DBBB6B" />
      <stop offset=".91" stop-color="#DBBB6B" />
    </linearGradient>
    <radialGradient
      id="c"
      cx="0"
      cy="0"
      r="1"
      gradientTransform="matrix(0 14.5881 -15.1081 0 24.24 18.673)"
      gradientUnits="userSpaceOnUse"
    >
      <stop stop-color="#C49F44" />
      <stop offset="1" stop-color="#231D1D" />
    </radialGradient>
    <clipPath id="a">
      <path fill="#fff" d="M0 0h49.756v34.493H0z" />
    </clipPath>
    <filter
      id="b"
      width="39.895"
      height="38.797"
      x="4.292"
      y="-1.536"
      colorInterpolationFilters="sRGB"
      filterUnits="userSpaceOnUse"
    >
      <feFlood floodOpacity="0" result="BackgroundImageFix" />
      <feBlend in="SourceGraphic" in2="BackgroundImageFix" result="shape" />
      <feGaussianBlur
        result="effect1_foregroundBlur_635_3736"
        stdDeviation="2"
      />
    </filter>
  </defs>
</svg>